<svg xmlns="http://www.w3.org/2000/svg" xmlns:xlink="http://www.w3.org/1999/xlink" width="1441" height="328" viewBox="0 0 1441 328">
  <defs>
    <style>
      .cls-1 {
        fill: #f0f1f7;
      }

      .cls-2 {
        fill: #fff;
      }

      .cls-3 {
        clip-path: url(#clip-Artboard_1);
      }

      .cls-4 {
        clip-path: url(#clip-path);
      }

      .cls-5 {
        clip-path: url(#clip-path-2);
      }

      .cls-6 {
        fill: #0c175f;
      }

      .cls-7 {
        filter: url(#Path_16051);
      }

      .cls-8 {
        filter: url(#Path_19055);
      }
    </style>
    <filter id="Path_19055" x="-351.413" y="-784" width="2066.731" height="1045.235" filterUnits="userSpaceOnUse">
      <feOffset dy="3" input="SourceAlpha"/>
      <feGaussianBlur stdDeviation="33" result="blur"/>
      <feFlood flood-opacity="0.161"/>
      <feComposite operator="in" in2="blur"/>
      <feComposite in="SourceGraphic"/>
    </filter>
    <clipPath id="clip-path">
      <path id="Path_19056" data-name="Path 19056" class="cls-1" d="M-5.146-9.057l1441.5,1.527V330.952H-.013Z" transform="translate(14717.65 -10850.779)"/>
    </clipPath>
    <filter id="Path_16051" x="-398.892" y="-769.713" width="2070.407" height="1140.661" filterUnits="userSpaceOnUse">
      <feOffset dy="3" input="SourceAlpha"/>
      <feGaussianBlur stdDeviation="23" result="blur-2"/>
      <feFlood flood-opacity="0.09"/>
      <feComposite operator="in" in2="blur-2"/>
      <feComposite in="SourceGraphic"/>
    </filter>
    <clipPath id="clip-path-2">
      <g class="cls-8" transform="matrix(1, 0, 0, 1, 0, 0)">
        <path id="Path_19055-2" data-name="Path 19055" class="cls-2" d="M-10-4,1440,0s380.253,986.511-2.312,805.731S632.92,865.367,20,841.558-10-4-10-4Z" transform="translate(7)"/>
      </g>
    </clipPath>
    <clipPath id="clip-Artboard_1">
      <rect width="1441" height="328"/>
    </clipPath>
  </defs>
  <g id="Artboard_1" data-name="Artboard – 1" class="cls-3">
    <rect class="cls-2" width="1441" height="328"/>
    <g id="Mask_Group_100" data-name="Mask Group 100" class="cls-4" transform="translate(-14713 10860)">
      <g class="cls-7" transform="matrix(1, 0, 0, 1, 14713, -10860)">
        <path id="Path_16051-2" data-name="Path 16051" class="cls-2" d="M0,0H1440s380.253,986.511-2.312,805.731S632.92,865.367,20,841.558,0,0,0,0Z" transform="matrix(1, 0.09, -0.09, 1, 0.32, -681.25)"/>
      </g>
      <g id="Mask_Group_99" data-name="Mask Group 99" class="cls-5" transform="translate(14714 -11544)">
        <path id="Path_16052" data-name="Path 16052" class="cls-6" d="M-5.146-9.057,1440-5V894.159H0Z"/>
      </g>
    </g>
  </g>
</svg>
