<svg id="Layer_1" data-name="Layer 1" xmlns="http://www.w3.org/2000/svg" viewBox="0 0 233.04 71.52"><defs><style>.cls-1{fill:#4385f4;}.cls-2{fill:#fff;}.cls-3{isolation:isolate;}</style></defs><title>badge-6</title><rect class="cls-1" x="0.5" y="0.6" width="232.04" height="70.32" rx="10.05" ry="10.05"/><path class="cls-2" d="M56.5,14.66H27.14C16.53,17.26,16.3,26.3,16.3,26.3V56.85H27.59V29a2.82,2.82,0,0,1,2.26-2.79H56.5ZM34.19,30.74S32,30.52,32,32.51v8.85h14.5V44a1.26,1.26,0,0,1-1.31,1.33H32v11.5H47.81s9.59-1.5,9.67-11.5V30.74Z"/><path class="cls-2" d="M89.5,33c-.46.32-.79.55-1,.69A19.57,19.57,0,0,1,86,35a7.72,7.72,0,0,1-3,.69,10.47,10.47,0,0,1-7.5-2.84,9.46,9.46,0,0,1-3-7.17,10.51,10.51,0,0,1,2.71-7.22,8.44,8.44,0,0,1,6.59-3A10.77,10.77,0,0,1,85.3,16a9.3,9.3,0,0,1,3.8,2.24l-1.73,2a6.58,6.58,0,0,0-2.8-1.61,9.66,9.66,0,0,0-2.77-.38,5.7,5.7,0,0,0-4.56,2.24,8.28,8.28,0,0,0-1.83,5.37,6.79,6.79,0,0,0,2.09,5.11A7.29,7.29,0,0,0,82.81,33a5.26,5.26,0,0,0,2.75-.86l1.2-.91V26.9H80.94l.84-2.67H89.5Zm17.56-5.22a7.55,7.55,0,0,1-2.15,5.37,7.17,7.17,0,0,1-10.45,0,7.36,7.36,0,0,1-2.19-5.39,7.85,7.85,0,0,1,2.09-5.43,6.64,6.64,0,0,1,5.12-2.3,7.18,7.18,0,0,1,5.45,2.22A7.55,7.55,0,0,1,107.06,27.78Zm-2.73,0A4.94,4.94,0,0,0,103,24.27a4.47,4.47,0,0,0-3.4-1.46,4.2,4.2,0,0,0-3.25,1.5A5.07,5.07,0,0,0,95,27.76a4.92,4.92,0,0,0,1.35,3.47,4.43,4.43,0,0,0,3.37,1.46,4.33,4.33,0,0,0,3.24-1.44A4.73,4.73,0,0,0,104.33,27.82Zm20,0a7.55,7.55,0,0,1-2.15,5.37,7.17,7.17,0,0,1-10.45,0,7.36,7.36,0,0,1-2.19-5.39,7.85,7.85,0,0,1,2.09-5.43,6.64,6.64,0,0,1,5.12-2.3,7.18,7.18,0,0,1,5.45,2.22A7.55,7.55,0,0,1,124.38,27.78Zm-2.73,0a4.94,4.94,0,0,0-1.37-3.55,4.47,4.47,0,0,0-3.4-1.46,4.2,4.2,0,0,0-3.25,1.5,5.07,5.07,0,0,0-1.33,3.45,4.92,4.92,0,0,0,1.35,3.47A4.43,4.43,0,0,0,117,32.69a4.33,4.33,0,0,0,3.24-1.44A4.73,4.73,0,0,0,121.65,27.82ZM140.41,35l-2.51.39V32.92l-.54.63a6.45,6.45,0,0,1-1.59,1.12,6.27,6.27,0,0,1-2.73.61,6.51,6.51,0,0,1-5-2.21,7.6,7.6,0,0,1-2-5.29,7.93,7.93,0,0,1,2-5.43A6.33,6.33,0,0,1,133,20.1a6.87,6.87,0,0,1,2.91.56,5,5,0,0,1,1.49,1.06l.42.59V15.79l2.67-.39,0,19.61Zm-2.35-7a5.08,5.08,0,0,0-1.46-3.7,4.45,4.45,0,0,0-3.32-1.52,4.27,4.27,0,0,0-3.36,1.44,5,5,0,0,0-1.22,3.36A5.41,5.41,0,0,0,130,31.23a4,4,0,0,0,3.18,1.44,4.86,4.86,0,0,0,3.38-1.34A4.38,4.38,0,0,0,138.06,28Zm16.42-9.46H147v5.2h5.79v2.67H147V35l-2.91.44V15.81h9.79Zm6-1.53-1.79,2.32L157,17l1.81-2.29Zm-.53,18-2.67.37V20.87l2.67-.42ZM172,20.3l-1.25,3a3.62,3.62,0,0,0-.5,0,5.12,5.12,0,0,0-.78.06,3.06,3.06,0,0,0-.83.29,3.33,3.33,0,0,0-1.46,1.61,6.73,6.73,0,0,0-.69,3V35l-2.67.44V20.87l2.47-.46v3c.32-.53.65-1.05,1-1.59a4,4,0,0,1,1.6-1.17,6.94,6.94,0,0,1,1.77-.31A7.31,7.31,0,0,1,172,20.3ZM191.85,35l-2.67.39v-10a2.8,2.8,0,0,0-.6-2,2.32,2.32,0,0,0-1.77-.63A2.35,2.35,0,0,0,184.68,24a3.38,3.38,0,0,0-.5,1.71V35l-2.66.5v-10a3.08,3.08,0,0,0-.58-2,2,2,0,0,0-1.59-.69h-.26a2.12,2.12,0,0,0-2,1.21,5,5,0,0,0-.48,2.32V35l-2.77.5V20.87l2.49-.44v1.86a5.82,5.82,0,0,1,.82-1.05,3.46,3.46,0,0,1,2.49-1,4.3,4.3,0,0,1,2.36.52,4.45,4.45,0,0,1,1.34,1.72,4.34,4.34,0,0,1,3.92-2.24,4.23,4.23,0,0,1,3.64,1.59,6.36,6.36,0,0,1,1,3.86ZM204,30.6a4.34,4.34,0,0,1-1.37,3.3,4.79,4.79,0,0,1-3.47,1.3,5.49,5.49,0,0,1-2.84-.76,5.23,5.23,0,0,1-1.91-1.73L196.31,31a4,4,0,0,0,.38.5,3.34,3.34,0,0,0,2.5,1.11,2.25,2.25,0,0,0,1.6-.55,1.87,1.87,0,0,0,.57-1.5c0-.73-.45-1.23-1.37-1.5-1.81-.57-2.79-.88-2.93-.94a5.09,5.09,0,0,1-1.81-1.43,4.11,4.11,0,0,1-.63-2.42A4.09,4.09,0,0,1,196,21.14a4.51,4.51,0,0,1,3.2-1.23,5.39,5.39,0,0,1,2.61.64A4.35,4.35,0,0,1,203.49,22l-1.59,1.77a7.37,7.37,0,0,0-.77-.67,3.2,3.2,0,0,0-1.84-.69,2.36,2.36,0,0,0-1.37.38,1.61,1.61,0,0,0-.64,1.38,1.42,1.42,0,0,0,.62,1.29,8.5,8.5,0,0,0,2.31.75A5.5,5.5,0,0,1,203,27.72,3.9,3.9,0,0,1,204,30.6Z"/><g class="cls-3"><path class="cls-2" d="M76.64,53.75a.31.31,0,0,1-.09-.22V46.37h-2.4a.3.3,0,0,1-.22-.1.31.31,0,0,1-.1-.23v-1a.32.32,0,0,1,.09-.23.3.3,0,0,1,.23-.09h6.64a.3.3,0,0,1,.23.09.33.33,0,0,1,.1.23v1a.34.34,0,0,1-.33.33H78.4v7.16a.31.31,0,0,1-.09.22.28.28,0,0,1-.22.09H76.86A.31.31,0,0,1,76.64,53.75Z"/><path class="cls-2" d="M81.45,53.19A3,3,0,0,1,80.56,51l0-.57,0-.57a3,3,0,0,1,.91-2.15,3.88,3.88,0,0,1,4.69,0,3,3,0,0,1,.91,2.15c0,.1,0,.29,0,.57s0,.47,0,.57a3,3,0,0,1-.9,2.16,3.3,3.3,0,0,1-2.35.78A3.35,3.35,0,0,1,81.45,53.19Zm3.43-1a2,2,0,0,0,.4-1.26c0-.09,0-.26,0-.51s0-.42,0-.51a2,2,0,0,0-.41-1.26,1.32,1.32,0,0,0-1.05-.44,1.34,1.34,0,0,0-1.07.44,2,2,0,0,0-.4,1.26v1a2,2,0,0,0,.4,1.26,1.37,1.37,0,0,0,1.07.43A1.35,1.35,0,0,0,84.88,52.23Z"/><path class="cls-2" d="M88.37,56.23a.32.32,0,0,1-.09-.23V47.39a.32.32,0,0,1,.09-.23.33.33,0,0,1,.22-.08h1a.3.3,0,0,1,.23.09.32.32,0,0,1,.1.22v.52A2.35,2.35,0,0,1,92,47a2.48,2.48,0,0,1,2,.83A3.51,3.51,0,0,1,94.79,50c0,.11,0,.26,0,.47s0,.36,0,.47a3.43,3.43,0,0,1-.75,2.2A2.48,2.48,0,0,1,92,54a2.35,2.35,0,0,1-2-.92v3a.36.36,0,0,1-.08.23.34.34,0,0,1-.23.08H88.59A.33.33,0,0,1,88.37,56.23ZM93,50.85c0-.09,0-.22,0-.39s0-.3,0-.39c-.06-1.14-.55-1.72-1.48-1.72a1.31,1.31,0,0,0-1.11.48A2.1,2.1,0,0,0,90,50c0,.11,0,.27,0,.5s0,.39,0,.51a1.75,1.75,0,0,0,.41,1.1,1.34,1.34,0,0,0,1.09.46C92.46,52.57,93,52,93,50.85Z"/><path class="cls-2" d="M97.75,53.76a.26.26,0,0,1-.07-.19l0-.12,3.12-8.39a.48.48,0,0,1,.47-.32h1.43a.47.47,0,0,1,.47.32l3.12,8.39,0,.12a.24.24,0,0,1-.08.19.29.29,0,0,1-.19.08h-1.15a.37.37,0,0,1-.38-.25l-.6-1.57h-3.85l-.6,1.57a.36.36,0,0,1-.37.25H98A.3.3,0,0,1,97.75,53.76Zm2.79-3.25h2.94l-1.47-4Z"/><path class="cls-2" d="M107.22,56.23a.32.32,0,0,1-.09-.23V47.39a.32.32,0,0,1,.09-.23.33.33,0,0,1,.22-.08h1a.3.3,0,0,1,.23.09.31.31,0,0,1,.09.22v.52a2.38,2.38,0,0,1,2.07-1,2.48,2.48,0,0,1,2,.83,3.46,3.46,0,0,1,.75,2.21c0,.11,0,.26,0,.47s0,.36,0,.47a3.38,3.38,0,0,1-.75,2.2,2.48,2.48,0,0,1-2,.84,2.34,2.34,0,0,1-2-.92v3a.36.36,0,0,1-.08.23.34.34,0,0,1-.23.08h-1.13A.33.33,0,0,1,107.22,56.23Zm4.64-5.38c0-.09,0-.22,0-.39s0-.3,0-.39c-.06-1.14-.55-1.72-1.48-1.72a1.31,1.31,0,0,0-1.11.48,2.1,2.1,0,0,0-.39,1.17c0,.11,0,.27,0,.5s0,.39,0,.51a1.75,1.75,0,0,0,.41,1.1,1.34,1.34,0,0,0,1.09.46C111.31,52.57,111.8,52,111.86,50.85Z"/><path class="cls-2" d="M114.94,56.23a.32.32,0,0,1-.09-.23V47.39a.32.32,0,0,1,.09-.23.35.35,0,0,1,.22-.08h1a.32.32,0,0,1,.24.09.31.31,0,0,1,.09.22v.52a2.38,2.38,0,0,1,2.06-1,2.48,2.48,0,0,1,2,.83,3.46,3.46,0,0,1,.75,2.21c0,.11,0,.26,0,.47s0,.36,0,.47a3.43,3.43,0,0,1-.74,2.2,2.52,2.52,0,0,1-2,.84,2.32,2.32,0,0,1-2-.92v3a.32.32,0,0,1-.09.23.34.34,0,0,1-.23.08h-1.13A.35.35,0,0,1,114.94,56.23Zm4.64-5.38a3.81,3.81,0,0,0,0-.78c-.06-1.14-.55-1.72-1.48-1.72a1.29,1.29,0,0,0-1.1.48,2,2,0,0,0-.39,1.17c0,.11,0,.27,0,.5s0,.39,0,.51a1.74,1.74,0,0,0,.4,1.1,1.34,1.34,0,0,0,1.09.46C119,52.57,119.52,52,119.58,50.85Z"/><path class="cls-2" d="M125.51,53.75a.31.31,0,0,1-.09-.22V45.06a.36.36,0,0,1,.08-.23.32.32,0,0,1,.23-.09h3.17c2.56,0,3.86,1.18,3.92,3.54,0,.5,0,.84,0,1s0,.5,0,1a3.7,3.7,0,0,1-1,2.69,4.11,4.11,0,0,1-2.86.86h-3.24A.29.29,0,0,1,125.51,53.75Zm3.39-1.42a2.14,2.14,0,0,0,1.56-.48,2.29,2.29,0,0,0,.51-1.6c0-.52,0-.84,0-1s0-.46,0-1a2.18,2.18,0,0,0-.53-1.56,2.22,2.22,0,0,0-1.6-.5h-1.59v6.08Z"/><path class="cls-2" d="M134.76,53.14a3.32,3.32,0,0,1-.9-2.37l0-.32a3.68,3.68,0,0,1,.85-2.56,3.47,3.47,0,0,1,4.75,0,3.57,3.57,0,0,1,.84,2.49v.28a.31.31,0,0,1-.09.22A.32.32,0,0,1,140,51h-4.31v.1a2,2,0,0,0,.39,1.2,1.23,1.23,0,0,0,1,.48,1.46,1.46,0,0,0,1.21-.6.73.73,0,0,1,.19-.18.54.54,0,0,1,.22,0h1.14a.27.27,0,0,1,.2.07.2.2,0,0,1,.09.18,1.23,1.23,0,0,1-.37.73,3.11,3.11,0,0,1-1.06.74,3.84,3.84,0,0,1-1.6.31A3.19,3.19,0,0,1,134.76,53.14Zm3.72-3.28v0a1.83,1.83,0,0,0-.38-1.23,1.42,1.42,0,0,0-2.09,0,1.88,1.88,0,0,0-.37,1.23v0Z"/><path class="cls-2" d="M143.24,53.75a.57.57,0,0,1-.17-.24l-2.44-6a.31.31,0,0,1,0-.11.28.28,0,0,1,.08-.21.29.29,0,0,1,.19-.08H142a.34.34,0,0,1,.35.25L144,51.86l1.71-4.53a.36.36,0,0,1,.11-.17.34.34,0,0,1,.23-.08h1.08a.26.26,0,0,1,.19.08.28.28,0,0,1,.08.21.31.31,0,0,1,0,.11l-2.43,6a.49.49,0,0,1-.47.33h-1A.45.45,0,0,1,143.24,53.75Z"/><path class="cls-2" d="M148.73,53.14a3.4,3.4,0,0,1-.9-2.37v-.32a3.63,3.63,0,0,1,.85-2.56,3.46,3.46,0,0,1,4.74,0,3.57,3.57,0,0,1,.84,2.49v.28a.31.31,0,0,1-.09.22.32.32,0,0,1-.23.09h-4.32v.1a2,2,0,0,0,.4,1.2,1.2,1.2,0,0,0,1,.48,1.47,1.47,0,0,0,1.21-.6,1,1,0,0,1,.18-.18.57.57,0,0,1,.22,0h1.14A.31.31,0,0,1,154,52a.22.22,0,0,1,.08.18,1.17,1.17,0,0,1-.37.73,3,3,0,0,1-1.06.74A3.81,3.81,0,0,1,151,54,3.19,3.19,0,0,1,148.73,53.14Zm3.73-3.28v0a1.88,1.88,0,0,0-.38-1.23,1.3,1.3,0,0,0-1.05-.46,1.26,1.26,0,0,0-1,.46,1.88,1.88,0,0,0-.38,1.23v0Z"/><path class="cls-2" d="M155.47,53.75a.31.31,0,0,1-.09-.22V44.92a.32.32,0,0,1,.09-.23.38.38,0,0,1,.23-.08h1.09a.31.31,0,0,1,.22.08.32.32,0,0,1,.09.23v8.61a.31.31,0,0,1-.09.22.28.28,0,0,1-.22.09H155.7A.33.33,0,0,1,155.47,53.75Z"/><path class="cls-2" d="M159.21,53.19a3,3,0,0,1-.9-2.16l0-.57,0-.57a3,3,0,0,1,.91-2.15,3.88,3.88,0,0,1,4.69,0,3,3,0,0,1,.91,2.15c0,.1,0,.29,0,.57s0,.47,0,.57a3,3,0,0,1-.9,2.16,3.95,3.95,0,0,1-4.71,0Zm3.42-1A2,2,0,0,0,163,51c0-.09,0-.26,0-.51s0-.42,0-.51a2,2,0,0,0-.41-1.26,1.32,1.32,0,0,0-1.05-.44,1.36,1.36,0,0,0-1.07.44,2,2,0,0,0-.4,1.26v1a2,2,0,0,0,.4,1.26,1.38,1.38,0,0,0,1.07.43A1.35,1.35,0,0,0,162.63,52.23Z"/><path class="cls-2" d="M166.12,56.23A.32.32,0,0,1,166,56V47.39a.32.32,0,0,1,.09-.23.35.35,0,0,1,.22-.08h1a.32.32,0,0,1,.24.09.31.31,0,0,1,.09.22v.52a2.38,2.38,0,0,1,2.06-1,2.48,2.48,0,0,1,2,.83,3.46,3.46,0,0,1,.75,2.21c0,.11,0,.26,0,.47s0,.36,0,.47a3.43,3.43,0,0,1-.74,2.2,2.52,2.52,0,0,1-2,.84,2.33,2.33,0,0,1-2-.92v3a.32.32,0,0,1-.09.23.34.34,0,0,1-.23.08h-1.13A.35.35,0,0,1,166.12,56.23Zm4.64-5.38a3.81,3.81,0,0,0,0-.78c-.06-1.14-.55-1.72-1.48-1.72a1.29,1.29,0,0,0-1.1.48,2,2,0,0,0-.39,1.17c0,.11,0,.27,0,.5s0,.39,0,.51a1.74,1.74,0,0,0,.4,1.1,1.34,1.34,0,0,0,1.09.46C170.21,52.57,170.7,52,170.76,50.85Z"/><path class="cls-2" d="M174.36,53.14a3.37,3.37,0,0,1-.91-2.37v-.32a3.63,3.63,0,0,1,.85-2.56,3.47,3.47,0,0,1,4.75,0,3.57,3.57,0,0,1,.83,2.49v.28a.31.31,0,0,1-.09.22.3.3,0,0,1-.23.09h-4.32v.1a2,2,0,0,0,.4,1.2,1.23,1.23,0,0,0,1,.48,1.46,1.46,0,0,0,1.21-.6A1,1,0,0,1,178,52a.57.57,0,0,1,.22,0h1.15a.29.29,0,0,1,.2.07.19.19,0,0,1,.08.18,1.17,1.17,0,0,1-.37.73,2.93,2.93,0,0,1-1.06.74,3.81,3.81,0,0,1-1.6.31A3.15,3.15,0,0,1,174.36,53.14Zm3.72-3.28v0a1.88,1.88,0,0,0-.38-1.23,1.3,1.3,0,0,0-1-.46,1.26,1.26,0,0,0-1,.46,1.88,1.88,0,0,0-.38,1.23v0Z"/><path class="cls-2" d="M181.08,53.75a.31.31,0,0,1-.09-.22V47.41a.32.32,0,0,1,.09-.24.31.31,0,0,1,.22-.09h1.07a.34.34,0,0,1,.24.09.32.32,0,0,1,.09.24v.53a2.2,2.2,0,0,1,1.87-.86h.54a.29.29,0,0,1,.32.31v1a.29.29,0,0,1-.09.22.29.29,0,0,1-.23.09h-1A1.21,1.21,0,0,0,182.77,50v3.56a.31.31,0,0,1-.09.22.29.29,0,0,1-.22.09H181.3A.31.31,0,0,1,181.08,53.75Z"/></g></svg>