<svg xmlns="http://www.w3.org/2000/svg" xmlns:xlink="http://www.w3.org/1999/xlink" width="676" height="157" viewBox="0 0 676 157">
  <defs>
    <clipPath id="clip-path">
      <path id="Path_48" data-name="Path 48" d="M4601.679,2445.609l67.359,68.25a28.032,28.032,0,0,0,46.98-12.258l33.947-123.443a9.48,9.48,0,0,0-11.534-11.686l-123.878,32.323A28.031,28.031,0,0,0,4601.679,2445.609Z" fill="none"/>
    </clipPath>
    <clipPath id="clip-path-2">
      <path id="Path_47" data-name="Path 47" d="M4751.407,2375.5l-42.849,12.319-.808.231-.009,0-.108.031a6.734,6.734,0,0,0-2.39,1.182c-.073.052-.143.109-.215.163l-.1.078a8.208,8.208,0,0,0-1.406,1.424,10.557,10.557,0,0,0-1.083,1.578l-14.623,21.886-2.013,3.013h0l-16.606,24.853-19.322-6.239a6.961,6.961,0,0,0-7.061,11.547l34.093,34.093a8.394,8.394,0,0,0,14.068-3.024l25.581-74.9,41.532-18.466C4763.424,2380.273,4758.433,2373.483,4751.407,2375.5Z" fill="none"/>
    </clipPath>
    <filter id="Path_44" x="44.232" y="7.385" width="99.814" height="134.768" filterUnits="userSpaceOnUse">
      <feOffset dx="-2.835" dy="7.002" input="SourceAlpha"/>
      <feGaussianBlur stdDeviation="5.669" result="blur"/>
      <feFlood flood-opacity="0.6"/>
      <feComposite operator="in" in2="blur"/>
      <feComposite in="SourceGraphic"/>
    </filter>
    <filter id="Path_45" x="72.383" y="-5.191" width="108.538" height="76.289" filterUnits="userSpaceOnUse">
      <feOffset dx="-2.835" dy="2.835" input="SourceAlpha"/>
      <feGaussianBlur stdDeviation="5.669" result="blur-2"/>
      <feFlood flood-opacity="0.6"/>
      <feComposite operator="in" in2="blur-2"/>
      <feComposite in="SourceGraphic"/>
    </filter>
    <clipPath id="clip-Artboard_2">
      <rect width="676" height="157"/>
    </clipPath>
  </defs>
  <g id="Artboard_2" data-name="Artboard – 2" clip-path="url(#clip-Artboard_2)">
    <g id="Group_104" data-name="Group 104" transform="translate(-4593.581 -2366.155)">
      <g id="Group_14" data-name="Group 14">
        <path id="Path_29" data-name="Path 29" d="M4778.341,2436.626l-.346-.146a18.675,18.675,0,0,0-6.64-1.21,13.365,13.365,0,0,0-11.707,6.033v-5.057h-10.716v47.875h10.716v-26.037c0-3.01.824-12.83,11.415-12.83a15.022,15.022,0,0,1,5.4.99l.738.271Z"/>
        <path id="Path_30" data-name="Path 30" d="M4802.268,2435.27c-14.482,0-25.4,10.71-25.4,24.914s10.921,24.914,25.4,24.914,25.4-10.711,25.4-24.914S4816.749,2435.27,4802.268,2435.27Zm0,39.746A14.832,14.832,0,1,1,4817,2460.184,14.459,14.459,0,0,1,4802.268,2475.016Z"/>
        <path id="Path_31" data-name="Path 31" d="M4855.982,2435.27c-14.481,0-25.4,10.71-25.4,24.914s10.921,24.914,25.4,24.914,25.4-10.711,25.4-24.914S4870.464,2435.27,4855.982,2435.27Zm0,39.746a14.832,14.832,0,1,1,14.735-14.832A14.459,14.459,0,0,1,4855.982,2475.016Z"/>
        <path id="Path_32" data-name="Path 32" d="M4915.121,2474.255a29.021,29.021,0,0,1-7.475,1.1c-4.688,0-7.166-2.41-7.166-6.97v-22.938H4914.3v-9.2h-13.916v-15.039h-10.424v15.039h-8.5v9.2h8.35v24.11c0,9.73,6.156,15.539,16.466,15.539a32.029,32.029,0,0,0,10.438-1.6l.371-.146-1.417-9.263Z"/>
        <path id="Path_33" data-name="Path 33" d="M4957.15,2441.768c-3.878-4.314-9.319-6.5-16.2-6.5-13.927,0-24.035,10.58-24.035,25.158,0,14.295,10.108,24.67,24.035,24.67,6.88,0,12.321-2.185,16.2-6.5v25.052h10.668v-67.406H4957.15Zm-15.027,33.638c-8.425,0-14.539-6.3-14.539-14.978,0-8.818,6.25-15.467,14.539-15.467,8.4,0,14.979,6.794,14.979,15.467A14.65,14.65,0,0,1,4942.123,2475.406Z"/>
        <path id="Path_34" data-name="Path 34" d="M5009.693,2463.211c0,6.95-4.613,11.805-11.218,11.805-6.578,0-11.17-4.855-11.17-11.805v-26.965h-10.717v28.625c0,11.909,9,20.227,21.887,20.227,12.808,0,21.788-8.438,21.838-20.52v-28.332h-10.62Z"/>
        <path id="Path_35" data-name="Path 35" d="M5051.213,2435.27c-14.482,0-25.4,10.71-25.4,24.914s10.92,24.914,25.4,24.914,25.4-10.711,25.4-24.914S5065.694,2435.27,5051.213,2435.27Zm0,39.746a14.832,14.832,0,1,1,14.734-14.832A14.459,14.459,0,0,1,5051.213,2475.016Z"/>
        <path id="Path_36" data-name="Path 36" d="M5110.352,2474.255a29.021,29.021,0,0,1-7.475,1.1c-4.689,0-7.166-2.41-7.166-6.97v-22.938h13.818v-9.2h-13.916v-15.039h-10.424v15.039h-8.5v9.2h8.35v24.11c0,9.73,6.156,15.539,16.467,15.539a32.022,32.022,0,0,0,10.437-1.6l.371-.146-1.417-9.263Z"/>
        <path id="Path_37" data-name="Path 37" d="M5121.143,2414.566a6.457,6.457,0,1,0,6.5,6.457A6.178,6.178,0,0,0,5121.143,2414.566Z"/>
        <rect id="Rectangle_5" data-name="Rectangle 5" width="10.668" height="47.875" transform="translate(5115.809 2436.246)"/>
        <path id="Path_38" data-name="Path 38" d="M5157.279,2435.27c-14.266,0-24.621,10.477-24.621,24.914,0,14.669,11.169,24.914,27.16,24.914a35.739,35.739,0,0,0,18.119-4.656l.3-.171-1.632-9.79-.6.287c-6.563,3.127-11.1,4.345-16.192,4.345-8.585,0-14.282-3.869-16.113-10.914h36.257l.075-.41c1.4-7.675-.362-15.156-4.842-20.527A22.792,22.792,0,0,0,5157.279,2435.27Zm-13.346,20.214c.949-6.231,6.357-10.377,13.639-10.377,7.028,0,11.836,3.96,12.674,10.377Z"/>
        <path id="Path_39" data-name="Path 39" d="M5211.336,2435.27c-7.733,0-12.011,3.649-13.9,5.887v-4.911h-10.717v47.875h10.668v-26.916c0-5.851,3.846-11.756,12.439-11.756,7.006,0,11.024,4.285,11.024,11.756v26.916h10.668v-28.967C5231.514,2442.889,5223.782,2435.27,5211.336,2435.27Z"/>
        <path id="Path_40" data-name="Path 40" d="M5268.778,2474.091l-.549.164a29.018,29.018,0,0,1-7.475,1.1c-4.689,0-7.166-2.41-7.166-6.97v-22.938h13.818v-9.2H5253.49v-15.039h-10.424v15.039h-8.5v9.2h8.35v24.11c0,9.73,6.156,15.539,16.467,15.539a32.027,32.027,0,0,0,10.437-1.6l.371-.146Z"/>
      </g>
      <g id="Group_18" data-name="Group 18">
        <g id="Group_17" data-name="Group 17" clip-path="url(#clip-path)">
          <path id="Path_41" data-name="Path 41" d="M4601.679,2445.609l67.359,68.25a28.032,28.032,0,0,0,46.98-12.258l33.947-123.443a9.48,9.48,0,0,0-11.534-11.686l-123.878,32.323A28.031,28.031,0,0,0,4601.679,2445.609Z" fill="#144bad"/>
          <g id="Group_16" data-name="Group 16">
            <g id="Group_15" data-name="Group 15" clip-path="url(#clip-path-2)">
              <path id="Path_42" data-name="Path 42" d="M4697.632,2459l-6.688,19.671a8.336,8.336,0,0,1-14.034,2.99l-34.093-34.093a6.961,6.961,0,0,1,7.061-11.547l43.343,14A6.961,6.961,0,0,1,4697.632,2459Z" fill="#fff"/>
              <path id="Path_43" data-name="Path 43" d="M4669.208,2442.251l-19.312-6.236a6.961,6.961,0,0,0-7.061,11.547l15.934,15.934.011.013,18.364,18.365a8.287,8.287,0,0,0,3.316,2.028,8.11,8.11,0,0,0,6.629-.628,8.239,8.239,0,0,0,3.872-4.609l38.537-112.842" fill="none"/>
              <g transform="matrix(1, 0, 0, 1, 4593.58, 2366.16)" filter="url(#Path_44)">
                <path id="Path_44-2" data-name="Path 44" d="M4703.2,2391.373l-44.89,67.186a3.9,3.9,0,0,0,.485,4.926l18.364,18.364a8.356,8.356,0,0,0,13.816-3.208l32.476-95.094-15.7,4.506A8.184,8.184,0,0,0,4703.2,2391.373Z" transform="translate(-4593.58 -2366.16)" fill="#fff"/>
              </g>
              <g transform="matrix(1, 0, 0, 1, 4593.58, 2366.16)" filter="url(#Path_45)">
                <path id="Path_45-2" data-name="Path 45" d="M4707.633,2388.087l43.774-12.584c7.026-2.02,12.017,4.77,6.684,9.769l-72.285,32.139,16.636-24.9S4704.33,2388.915,4707.633,2388.087Z" transform="translate(-4593.58 -2366.16)" fill="#fff"/>
              </g>
              <path id="Path_46" data-name="Path 46" d="M4669.208,2442.251l-19.312-6.236a6.961,6.961,0,0,0-7.061,11.547l15.934,15.934.011.013,18.364,18.365a8.287,8.287,0,0,0,3.316,2.028,8.11,8.11,0,0,0,6.629-.628,8.239,8.239,0,0,0,3.872-4.609l38.537-112.842" fill="none"/>
            </g>
          </g>
        </g>
      </g>
    </g>
  </g>
</svg>
