<svg xmlns="http://www.w3.org/2000/svg" xmlns:xlink="http://www.w3.org/1999/xlink" width="676" height="157" viewBox="0 0 676 157">
  <defs>
    <clipPath id="clip-path">
      <path id="Path_16" data-name="Path 16" d="M4601.742,2788.913l67.36,68.249a28.031,28.031,0,0,0,46.979-12.258l33.947-123.442a9.48,9.48,0,0,0-11.534-11.686L4614.616,2742.1A28.032,28.032,0,0,0,4601.742,2788.913Z" fill="none"/>
    </clipPath>
    <clipPath id="clip-path-2">
      <path id="Path_15" data-name="Path 15" d="M4754.117,2718.093l-30.6,8.77,0-.012-15.7,4.506c-.041.012-.081.028-.123.041l-.289.083a5.807,5.807,0,0,0-2.115,1.1,8.178,8.178,0,0,0-2.02,2.09l-33.994,50.879h0l-19.312-6.236a6.741,6.741,0,0,0-5.762.642,6.964,6.964,0,0,0-1.317,10.914l34.094,34.093a9.8,9.8,0,0,0,.985.874c.159.125.326.229.49.34a8.134,8.134,0,0,0,7.919.784l.062-.029c.244-.108.483-.225.717-.357l0,0q.329-.18.641-.389l.019-.013c.04-.027.077-.059.116-.086.208-.145.409-.3.6-.465.083-.07.164-.142.244-.215q.245-.223.471-.47c.065-.069.132-.134.194-.205a7.926,7.926,0,0,0,.541-.7c.07-.1.133-.207.2-.312q.155-.244.293-.5c.07-.129.138-.259.2-.393.078-.167.147-.342.215-.517.049-.123.108-.237.152-.364l24.49-71.712,44.142-22.256A5.831,5.831,0,0,0,4754.117,2718.093Z" fill="#144bad"/>
    </clipPath>
    <filter id="Path_14" x="43.876" y="7.845" width="99.814" height="134.768" filterUnits="userSpaceOnUse">
      <feOffset dx="-2.835" dy="7.002" input="SourceAlpha"/>
      <feGaussianBlur stdDeviation="5.669" result="blur"/>
      <feFlood flood-opacity="0.6"/>
      <feComposite operator="in" in2="blur"/>
      <feComposite in="SourceGraphic"/>
    </filter>
    <clipPath id="clip-Artboard_1">
      <rect width="676" height="157"/>
    </clipPath>
  </defs>
  <g id="Artboard_1" data-name="Artboard – 1" clip-path="url(#clip-Artboard_1)">
    <g id="Group_103" data-name="Group 103" transform="translate(-4594 -2709)">
      <g id="Group_11" data-name="Group 11">
        <g id="Group_10" data-name="Group 10" clip-path="url(#clip-path)">
          <path id="Path_9" data-name="Path 9" d="M4601.742,2788.913l67.36,68.249a28.031,28.031,0,0,0,46.979-12.258l33.947-123.442a9.48,9.48,0,0,0-11.534-11.686L4614.616,2742.1A28.032,28.032,0,0,0,4601.742,2788.913Z" fill="#fff"/>
          <g id="Group_9" data-name="Group 9">
            <path id="Path_10" data-name="Path 10" d="M4754.117,2718.093l-30.6,8.77,0-.012-15.7,4.506c-.041.012-.081.028-.123.041l-.289.083a5.807,5.807,0,0,0-2.115,1.1,8.178,8.178,0,0,0-2.02,2.09l-33.994,50.879h0l-19.312-6.236a6.741,6.741,0,0,0-5.762.642,6.964,6.964,0,0,0-1.317,10.914l34.094,34.093a9.8,9.8,0,0,0,.985.874c.159.125.326.229.49.34a8.134,8.134,0,0,0,7.919.784l.062-.029c.244-.108.483-.225.717-.357l0,0q.329-.18.641-.389l.019-.013c.04-.027.077-.059.116-.086.208-.145.409-.3.6-.465.083-.07.164-.142.244-.215q.245-.223.471-.47c.065-.069.132-.134.194-.205a7.926,7.926,0,0,0,.541-.7c.07-.1.133-.207.2-.312q.155-.244.293-.5c.07-.129.138-.259.2-.393.078-.167.147-.342.215-.517.049-.123.108-.237.152-.364l24.49-71.712,44.142-22.256A5.831,5.831,0,0,0,4754.117,2718.093Z" fill="#144bad"/>
            <g id="Group_8" data-name="Group 8" clip-path="url(#clip-path-2)">
              <path id="Path_11" data-name="Path 11" d="M4697.695,2802.307l-6.688,19.672a8.336,8.336,0,0,1-14.034,2.989l-34.093-34.093a6.961,6.961,0,0,1,7.061-11.546l43.344,13.995A6.96,6.96,0,0,1,4697.695,2802.307Z" fill="#144bad"/>
              <path id="Path_12" data-name="Path 12" d="M4669.271,2785.555l-19.312-6.236a6.961,6.961,0,0,0-7.061,11.546l15.935,15.935.011.013,18.364,18.364a8.286,8.286,0,0,0,3.315,2.029,8.11,8.11,0,0,0,6.629-.629,8.233,8.233,0,0,0,3.872-4.608l38.537-112.843" fill="none"/>
              <path id="Path_13" data-name="Path 13" d="M4703.434,2738.866l-3,16.674c1.548,4.848,6.511.853,10.657-3.067l48.587-24.5a5.831,5.831,0,0,0-5.557-9.883l-46.716,13.388A5.831,5.831,0,0,0,4703.434,2738.866Z" fill="#144bad"/>
              <g id="Group_7" data-name="Group 7">
                <g transform="matrix(1, 0, 0, 1, 4594, 2709)" filter="url(#Path_14)">
                  <path id="Path_14-2" data-name="Path 14" d="M4703.267,2734.676l-44.891,67.187a3.9,3.9,0,0,0,.485,4.925l18.364,18.364a8.356,8.356,0,0,0,13.817-3.208l32.475-95.093-15.7,4.506A8.177,8.177,0,0,0,4703.267,2734.676Z" transform="translate(-4594 -2709)" fill="#144bad"/>
                </g>
              </g>
            </g>
          </g>
        </g>
      </g>
      <g id="Group_12" data-name="Group 12">
        <path id="Path_17" data-name="Path 17" d="M4778.342,2779.314l-.346-.145a18.638,18.638,0,0,0-6.64-1.211,13.365,13.365,0,0,0-11.707,6.033v-5.056h-10.716v47.875h10.716v-26.038c0-3.009.824-12.83,11.414-12.83a15.009,15.009,0,0,1,5.4.991l.738.27Z" fill="#fff"/>
        <path id="Path_18" data-name="Path 18" d="M4802.269,2777.958c-14.482,0-25.4,10.711-25.4,24.914s10.921,24.914,25.4,24.914,25.4-10.711,25.4-24.914S4816.75,2777.958,4802.269,2777.958Zm0,39.746A14.832,14.832,0,1,1,4817,2802.872,14.459,14.459,0,0,1,4802.269,2817.7Z" fill="#fff"/>
        <path id="Path_19" data-name="Path 19" d="M4855.983,2777.958c-14.481,0-25.4,10.711-25.4,24.914s10.921,24.914,25.4,24.914,25.4-10.711,25.4-24.914S4870.465,2777.958,4855.983,2777.958Zm0,39.746a14.832,14.832,0,1,1,14.735-14.832A14.459,14.459,0,0,1,4855.983,2817.7Z" fill="#fff"/>
        <path id="Path_20" data-name="Path 20" d="M4915.122,2816.943a28.99,28.99,0,0,1-7.475,1.1c-4.688,0-7.166-2.41-7.166-6.971v-22.937H4914.3v-9.2h-13.916V2763.9H4889.96v15.039h-8.5v9.2h8.349v24.109c0,9.731,6.157,15.539,16.467,15.539a32.031,32.031,0,0,0,10.438-1.6l.371-.147-1.417-9.263Z" fill="#fff"/>
        <path id="Path_21" data-name="Path 21" d="M4957.151,2784.456c-3.878-4.313-9.319-6.5-16.2-6.5-13.927,0-24.035,10.58-24.035,25.158,0,14.295,10.108,24.67,24.035,24.67,6.88,0,12.321-2.184,16.2-6.5v25.053h10.668v-67.406h-10.668Zm-15.027,33.639c-8.425,0-14.539-6.3-14.539-14.979,0-8.817,6.25-15.467,14.539-15.467,8.4,0,14.979,6.794,14.979,15.467A14.651,14.651,0,0,1,4942.124,2818.095Z" fill="#fff"/>
        <path id="Path_22" data-name="Path 22" d="M5009.694,2805.9c0,6.951-4.613,11.805-11.218,11.805-6.578,0-11.17-4.854-11.17-11.805v-26.964h-10.717v28.625c0,11.909,9,20.226,21.887,20.226,12.808,0,21.788-8.437,21.837-20.519v-28.332h-10.619Z" fill="#fff"/>
        <path id="Path_23" data-name="Path 23" d="M5051.214,2777.958c-14.482,0-25.4,10.711-25.4,24.914s10.92,24.914,25.4,24.914,25.4-10.711,25.4-24.914S5065.695,2777.958,5051.214,2777.958Zm0,39.746a14.832,14.832,0,1,1,14.734-14.832A14.459,14.459,0,0,1,5051.214,2817.7Z" fill="#fff"/>
        <path id="Path_24" data-name="Path 24" d="M5110.353,2816.943a28.987,28.987,0,0,1-7.475,1.1c-4.689,0-7.166-2.41-7.166-6.971v-22.937h13.818v-9.2h-13.916V2763.9H5085.19v15.039h-8.5v9.2h8.35v24.109c0,9.731,6.156,15.539,16.467,15.539a32.029,32.029,0,0,0,10.437-1.6l.371-.147-1.417-9.263Z" fill="#fff"/>
        <rect id="Rectangle_4" data-name="Rectangle 4" width="10.668" height="47.875" transform="translate(5115.81 2778.935)" fill="#fff"/>
        <path id="Path_25" data-name="Path 25" d="M5121.144,2757.255a6.457,6.457,0,1,0,6.5,6.457A6.178,6.178,0,0,0,5121.144,2757.255Z" fill="#fff"/>
        <path id="Path_26" data-name="Path 26" d="M5157.28,2777.958c-14.266,0-24.621,10.478-24.621,24.914,0,14.669,11.169,24.914,27.16,24.914a35.741,35.741,0,0,0,18.119-4.655l.3-.172-1.632-9.789-.6.286c-6.563,3.127-11.1,4.346-16.192,4.346-8.585,0-14.282-3.869-16.113-10.914h36.257l.075-.41c1.4-7.675-.362-15.157-4.842-20.528A22.8,22.8,0,0,0,5157.28,2777.958Zm-13.346,20.215c.949-6.232,6.357-10.377,13.639-10.377,7.028,0,11.836,3.96,12.674,10.377Z" fill="#fff"/>
        <path id="Path_27" data-name="Path 27" d="M5211.337,2777.958c-7.733,0-12.011,3.649-13.9,5.888v-4.911h-10.717v47.875h10.668v-26.916c0-5.852,3.846-11.756,12.439-11.756,7.006,0,11.024,4.285,11.024,11.756v26.916h10.668v-28.967C5231.515,2785.577,5223.783,2777.958,5211.337,2777.958Z" fill="#fff"/>
        <path id="Path_28" data-name="Path 28" d="M5268.779,2816.779l-.55.164a28.974,28.974,0,0,1-7.474,1.1c-4.689,0-7.166-2.41-7.166-6.971v-22.937h13.818v-9.2h-13.916V2763.9h-10.424v15.039h-8.5v9.2h8.35v24.109c0,9.731,6.156,15.539,16.467,15.539a32.029,32.029,0,0,0,10.437-1.6l.371-.147Z" fill="#fff"/>
      </g>
    </g>
  </g>
</svg>
